# xmcd CD database file
#
# Track frame offsets:
#	150
#	19764
#	38741
#	56846
#	74766
#	92738
#	117059
#	136397
#	153220
#	170192
#	188483
#	204837
#	219999
#
# Disc length: 3166 seconds
#
# Revision: 0
# Processed by: cddbd v1.5.2PL0 Copyright (c) Steve Scherf et al.
# Submitted via: CDex 1.50beta10
#
DISCID=b20c5c0d
DTITLE=Owen Lockett - Take Time Out
DYEAR=2004
DGENRE=Country
TTITLE0=The Reason
TTITLE1=Hey Brother!
TTITLE2=Take Time Out
TTITLE3=Soldier On
TTITLE4=Wrong Side of Town
TTITLE5=You Are
TTITLE6=Dark Horse
TTITLE7=Three Simple Words
TTITLE8=Mr G
TTITLE9=Without You
TTITLE10=The Hand
TTITLE11=Bronco Rider
TTITLE12=Picture Puzzle
EXTD=YEAR: 2004
EXTT0=
EXTT1=
EXTT2=
EXTT3=
EXTT4=
EXTT5=
EXTT6=
EXTT7=
EXTT8=
EXTT9=
EXTT10=
EXTT11=
EXTT12=
PLAYORDER=
